<?xml version="1.0" encoding="UTF-8"?>
<svg xmlns="http://www.w3.org/2000/svg" xmlns:xlink="http://www.w3.org/1999/xlink" width="5184pt" height="2592.000001pt" viewBox="0 0 5184 2592.000001" version="1.2">
<defs>
<clipPath id="clip1">
  <path d="M 1 0 L 5183 0 L 5183 2591 L 1 2591 Z M 1 0 "/>
</clipPath>
<clipPath id="clip2">
  <path d="M 1890 928 L 2129.761719 928 L 2129.761719 1185.75 L 1890 1185.75 Z M 1890 928 "/>
</clipPath>
<clipPath id="clip3">
  <path d="M 2392.328125 404.089844 L 2605.683594 404.089844 L 2605.683594 808.871094 L 2392.328125 808.871094 Z M 2392.328125 404.089844 "/>
</clipPath>
<clipPath id="clip4">
  <path d="M 3097 2021 L 3314 2021 L 3314 2237.832031 L 3097 2237.832031 Z M 3097 2021 "/>
</clipPath>
<clipPath id="clip5">
  <path d="M 2393 1090.949219 L 3063 1090.949219 L 3063 2222 L 2393 2222 Z M 2393 1090.949219 "/>
</clipPath>
<clipPath id="clip6">
  <path d="M 3094 1090.949219 L 3331 1090.949219 L 3331 1737 L 3094 1737 Z M 3094 1090.949219 "/>
</clipPath>
<clipPath id="clip7">
  <path d="M 3330.078125 1509.496094 L 3330.078125 1090.867188 L 3094.996094 1090.867188 L 3094.996094 1421.414062 C 3094.996094 1532.222656 3097.179688 1635.835938 3103.363281 1736.046875 Z M 3330.078125 1509.496094 "/>
</clipPath>
<clipPath id="clip8">
  <path d="M 3279 2203 L 3314 2203 L 3314 2237.832031 L 3279 2237.832031 Z M 3279 2203 "/>
</clipPath>
<clipPath id="clip9">
  <path d="M 2393 1090.949219 L 2629 1090.949219 L 2629 2222 L 2393 2222 Z M 2393 1090.949219 "/>
</clipPath>
<clipPath id="clip10">
  <path d="M 1827.355469 355.296875 L 2693 355.296875 L 2693 1266.058594 L 1827.355469 1266.058594 Z M 1827.355469 355.296875 "/>
</clipPath>
</defs>
<g id="surface1">
<g clip-path="url(#clip1)" clip-rule="nonzero">
<path style=" stroke:none;fill-rule:nonzero;fill:rgb(100%,100%,100%);fill-opacity:1;" d="M 1 0 L 5183 0 L 5183 2598.496094 L 1 2598.496094 Z M 1 0 "/>
</g>
<path style=" stroke:none;fill-rule:nonzero;fill:rgb(100%,100%,100%);fill-opacity:1;" d="M 1 0 L 5183 0 L 5183 2591 L 1 2591 Z M 1 0 "/>
<path style=" stroke:none;fill-rule:nonzero;fill:rgb(46.669006%,86.669922%,46.669006%);fill-opacity:1;" d="M 1 0 L 5183 0 L 5183 2591 L 1 2591 Z M 1 0 "/>
<g clip-path="url(#clip2)" clip-rule="nonzero">
<path style=" stroke:none;fill-rule:nonzero;fill:rgb(100%,100%,100%);fill-opacity:1;" d="M 2072.066406 994.027344 C 2062.800781 994.027344 2053.535156 994.027344 2044.40625 993.617188 C 2042.332031 993.617188 2040.328125 993.207031 2038.253906 993 C 2039.015625 991.015625 2039.636719 989.03125 2040.535156 987.113281 C 2045.789062 976.300781 2051.046875 965.484375 2056.441406 954.804688 C 2061.28125 945.292969 2054.503906 941.734375 2047.726562 938.925781 C 2047.386719 938.738281 2047.039062 938.570312 2046.679688 938.421875 C 2046.320312 938.273438 2045.953125 938.148438 2045.578125 938.046875 C 2045.203125 937.941406 2044.824219 937.859375 2044.441406 937.800781 C 2044.054688 937.742188 2043.667969 937.707031 2043.28125 937.695312 C 2042.890625 937.683594 2042.503906 937.695312 2042.117188 937.730469 C 2041.726562 937.765625 2041.34375 937.820312 2040.964844 937.902344 C 2040.582031 937.980469 2040.207031 938.082031 2039.839844 938.207031 C 2039.472656 938.332031 2039.113281 938.476562 2038.761719 938.644531 C 2038.414062 938.8125 2038.074219 939 2037.746094 939.210938 C 2037.417969 939.417969 2037.105469 939.644531 2036.804688 939.890625 C 2036.507812 940.132812 2036.222656 940.398438 2035.953125 940.675781 C 2035.6875 940.957031 2035.4375 941.25 2035.203125 941.558594 C 2034.972656 941.867188 2034.761719 942.1875 2034.566406 942.523438 C 2034.375 942.859375 2034.203125 943.203125 2034.050781 943.558594 C 2033.902344 943.914062 2033.773438 944.273438 2033.664062 944.644531 C 2033.558594 945.015625 2033.476562 945.390625 2033.414062 945.769531 C 2030.507812 955.148438 2027.328125 964.527344 2024.078125 973.835938 C 2023.527344 975.339844 2021.867188 976.503906 2020.757812 977.804688 C 2019.777344 976.703125 2018.878906 975.539062 2018.0625 974.3125 C 2007.550781 954.941406 1990.265625 942.621094 1972.011719 930.984375 C 1966.273438 927.425781 1960.394531 928.386719 1958.179688 934.613281 C 1954.726562 943.480469 1952.257812 952.605469 1950.78125 961.992188 C 1950.023438 966.785156 1950.023438 969.863281 1943.867188 970.6875 C 1917.246094 974.3125 1903.832031 990.535156 1896.15625 1015.726562 C 1882.117188 1062.886719 1893.804688 1105.734375 1914.410156 1147.96875 C 1918.074219 1155.15625 1923.191406 1161.660156 1927.132812 1169.1875 C 1940.480469 1194.035156 1973.046875 1196.566406 1991.304688 1184.863281 C 1992.164062 1184.292969 1993.0625 1183.792969 1994 1183.363281 C 1994.9375 1182.929688 1995.90625 1182.574219 1996.898438 1182.289062 C 1997.890625 1182.003906 1998.902344 1181.796875 1999.929688 1181.667969 C 2000.953125 1181.539062 2001.984375 1181.488281 2003.019531 1181.515625 C 2004.050781 1181.542969 2005.078125 1181.648438 2006.097656 1181.832031 C 2007.113281 1182.015625 2008.109375 1182.277344 2009.089844 1182.613281 C 2010.066406 1182.949219 2011.011719 1183.355469 2011.925781 1183.835938 C 2012.835938 1184.316406 2013.707031 1184.863281 2014.535156 1185.480469 C 2020.324219 1188.414062 2026.363281 1190.695312 2032.652344 1192.324219 C 2034.28125 1192.863281 2035.941406 1193.28125 2037.632812 1193.582031 C 2039.324219 1193.878906 2041.03125 1194.054688 2042.746094 1194.109375 C 2044.464844 1194.160156 2046.175781 1194.089844 2047.882812 1193.894531 C 2049.589844 1193.699219 2051.273438 1193.382812 2052.933594 1192.941406 C 2054.59375 1192.503906 2056.210938 1191.949219 2057.789062 1191.273438 C 2059.367188 1190.601562 2060.886719 1189.820312 2062.347656 1188.925781 C 2063.8125 1188.035156 2065.199219 1187.039062 2066.515625 1185.945312 C 2067.832031 1184.851562 2069.058594 1183.667969 2070.199219 1182.398438 C 2093.570312 1157.894531 2115.351562 1132.226562 2128.558594 1100.671875 C 2140.800781 1071.441406 2140.800781 1042.898438 2118.1875 1017.917969 C 2115.117188 1014.765625 2111.8125 1011.875 2108.273438 1009.25 C 2104.734375 1006.625 2101.003906 1004.300781 2097.085938 1002.269531 C 2093.164062 1000.238281 2089.109375 998.535156 2084.910156 997.152344 C 2080.714844 995.769531 2076.433594 994.726562 2072.066406 994.027344 Z M 1908.949219 1039.546875 C 1912.40625 1029.074219 1915.378906 1018.328125 1919.457031 1008.058594 C 1919.925781 1006.785156 1920.476562 1005.546875 1921.105469 1004.347656 C 1921.738281 1003.144531 1922.445312 1001.988281 1923.230469 1000.878906 C 1924.015625 999.769531 1924.871094 998.714844 1925.792969 997.714844 C 1926.71875 996.714844 1927.707031 995.78125 1928.753906 994.910156 C 1929.800781 994.039062 1930.90625 993.242188 1932.058594 992.515625 C 1933.214844 991.785156 1934.410156 991.136719 1935.652344 990.566406 C 1936.894531 989.996094 1938.167969 989.503906 1939.472656 989.101562 C 1940.777344 988.695312 1942.105469 988.375 1943.453125 988.140625 C 1967.445312 983.210938 1983.972656 995.535156 1998.769531 1011.824219 C 1999.214844 1012.394531 1999.683594 1012.945312 2000.179688 1013.472656 C 2000.675781 1014 2001.195312 1014.503906 2001.742188 1014.980469 C 2002.285156 1015.460938 2002.851562 1015.910156 2003.4375 1016.335938 C 2004.027344 1016.761719 2004.632812 1017.15625 2005.261719 1017.523438 C 2005.886719 1017.890625 2006.53125 1018.226562 2007.1875 1018.535156 C 2007.847656 1018.84375 2008.519531 1019.117188 2009.203125 1019.359375 C 2009.890625 1019.601562 2010.585938 1019.8125 2011.289062 1019.992188 C 2011.996094 1020.167969 2012.707031 1020.3125 2013.425781 1020.421875 C 2014.148438 1020.535156 2014.871094 1020.609375 2015.597656 1020.652344 C 2016.324219 1020.695312 2017.050781 1020.703125 2017.777344 1020.675781 C 2018.503906 1020.648438 2019.230469 1020.585938 2019.953125 1020.492188 C 2020.671875 1020.398438 2021.386719 1020.269531 2022.097656 1020.105469 C 2022.808594 1019.941406 2023.507812 1019.746094 2024.195312 1019.519531 C 2024.886719 1019.289062 2025.566406 1019.027344 2026.230469 1018.734375 C 2026.894531 1018.441406 2027.542969 1018.121094 2028.179688 1017.765625 C 2028.8125 1017.410156 2029.429688 1017.027344 2030.023438 1016.617188 C 2054.710938 1000.941406 2095.785156 1011.617188 2109.890625 1037.148438 C 2111.78125 1040.710938 2113.28125 1044.421875 2114.394531 1048.292969 C 2115.507812 1052.160156 2116.207031 1056.101562 2116.492188 1060.113281 C 2116.777344 1064.125 2116.644531 1068.121094 2116.089844 1072.105469 C 2115.539062 1076.089844 2114.578125 1079.976562 2113.210938 1083.765625 C 2110.753906 1090.6875 2107.910156 1097.445312 2104.671875 1104.046875 C 2101.4375 1110.648438 2097.832031 1117.042969 2093.859375 1123.234375 C 2089.882812 1129.429688 2085.566406 1135.375 2080.90625 1141.078125 C 2076.242188 1146.78125 2071.269531 1152.207031 2065.980469 1157.347656 C 2041.019531 1183.765625 2046.414062 1183.5625 2013.429688 1167.269531 C 2012.316406 1166.640625 2011.164062 1166.085938 2009.972656 1165.617188 C 2008.777344 1165.148438 2007.558594 1164.761719 2006.3125 1164.460938 C 2005.0625 1164.164062 2003.800781 1163.953125 2002.523438 1163.828125 C 2001.246094 1163.707031 1999.964844 1163.675781 1998.683594 1163.730469 C 1997.402344 1163.789062 1996.128906 1163.9375 1994.867188 1164.171875 C 1993.605469 1164.40625 1992.367188 1164.730469 1991.152344 1165.140625 C 1989.9375 1165.546875 1988.757812 1166.039062 1987.613281 1166.617188 C 1986.46875 1167.191406 1985.371094 1167.84375 1984.320312 1168.570312 C 1981.417969 1170.394531 1978.375 1171.949219 1975.191406 1173.226562 C 1974.570312 1173.535156 1973.9375 1173.820312 1973.289062 1174.070312 C 1972.644531 1174.324219 1971.988281 1174.546875 1971.320312 1174.742188 C 1970.652344 1174.933594 1969.976562 1175.09375 1969.292969 1175.226562 C 1968.609375 1175.359375 1967.921875 1175.457031 1967.230469 1175.527344 C 1966.539062 1175.59375 1965.84375 1175.632812 1965.148438 1175.636719 C 1964.453125 1175.640625 1963.761719 1175.613281 1963.066406 1175.554688 C 1962.375 1175.5 1961.6875 1175.410156 1961 1175.289062 C 1960.316406 1175.164062 1959.640625 1175.015625 1958.96875 1174.832031 C 1958.296875 1174.648438 1957.636719 1174.433594 1956.988281 1174.191406 C 1956.335938 1173.949219 1955.699219 1173.675781 1955.074219 1173.371094 C 1954.449219 1173.070312 1953.839844 1172.742188 1953.246094 1172.382812 C 1952.648438 1172.027344 1952.074219 1171.644531 1951.515625 1171.234375 C 1950.957031 1170.824219 1950.417969 1170.386719 1949.898438 1169.929688 C 1949.382812 1169.46875 1948.886719 1168.988281 1948.414062 1168.484375 C 1947.941406 1167.980469 1947.492188 1167.453125 1947.066406 1166.910156 C 1946.644531 1166.363281 1946.246094 1165.800781 1945.871094 1165.21875 C 1940.296875 1157.027344 1935.226562 1148.539062 1930.660156 1139.753906 C 1926.679688 1132.054688 1923.222656 1124.128906 1920.292969 1115.976562 C 1917.359375 1107.828125 1914.976562 1099.523438 1913.144531 1091.0625 C 1911.3125 1082.605469 1910.042969 1074.0625 1909.339844 1065.441406 C 1908.640625 1056.816406 1908.507812 1048.1875 1908.949219 1039.546875 Z M 1964.265625 952.070312 C 1966.0625 950.90625 1969.175781 947.34375 1971.597656 947.757812 C 1982.730469 949.46875 2007.550781 978.148438 2007.550781 988.894531 C 2007.375 990.59375 2006.914062 992.210938 2006.167969 993.753906 C 2004.855469 993 2003.472656 992.382812 2002.296875 991.5625 C 1993.585938 985.8125 1985.703125 977.875 1976.160156 974.792969 C 1964.40625 971.097656 1964.75 963.15625 1964.472656 952.070312 Z M 1964.265625 952.070312 "/>
</g>
<g clip-path="url(#clip3)" clip-rule="nonzero">
<path style=" stroke:none;fill-rule:nonzero;fill:rgb(100%,100%,100%);fill-opacity:1;" d="M 2537.070312 529.835938 C 2532.539062 528.996094 2527.882812 528.535156 2523.113281 528.535156 L 2474.902344 528.535156 C 2470.136719 528.535156 2465.472656 528.996094 2460.945312 529.835938 C 2451.289062 511.300781 2434.296875 497.949219 2415.757812 488.597656 C 2428.875 486.992188 2442.582031 488.765625 2454.238281 494.332031 C 2458.785156 496.503906 2463.683594 492.949219 2462.605469 487.859375 C 2459.484375 473.082031 2452.121094 458.496094 2442.15625 446.796875 C 2453.894531 449.09375 2465.328125 458.128906 2472.699219 467.265625 C 2475.730469 471.027344 2480.765625 468.230469 2482.21875 464.738281 C 2487.816406 451.289062 2493.410156 437.84375 2499.011719 424.394531 C 2504.605469 437.84375 2510.203125 451.289062 2515.796875 464.738281 C 2517.253906 468.230469 2522.285156 471.027344 2525.320312 467.265625 C 2532.6875 458.128906 2544.125 449.09375 2555.859375 446.796875 C 2545.886719 458.496094 2538.535156 473.078125 2535.40625 487.859375 C 2534.328125 492.964844 2539.246094 496.492188 2543.78125 494.332031 C 2555.445312 488.765625 2569.144531 486.988281 2582.257812 488.597656 C 2563.722656 497.949219 2546.671875 511.3125 2537.070312 529.835938 Z M 2571.25 561.265625 L 2548.929688 583.71875 L 2515.996094 550.578125 L 2526.4375 540.0625 C 2530.28125 540.257812 2534.027344 540.808594 2537.667969 541.644531 C 2538.761719 542.332031 2540 542.667969 2541.195312 542.554688 C 2552.871094 545.945312 2563.226562 552.511719 2571.25 561.265625 Z M 2588.558594 623.566406 L 2556.980469 591.800781 L 2578.246094 570.410156 C 2584.761719 580.640625 2588.558594 592.789062 2588.558594 605.808594 Z M 2573.597656 773.445312 L 2556.980469 756.734375 L 2588.558594 724.96875 L 2588.558594 731.59375 C 2588.558594 747.476562 2582.941406 762.054688 2573.597656 773.445312 Z M 2516.519531 797.425781 L 2548.929688 764.816406 L 2565.617188 781.601562 C 2554.164062 791.445312 2539.332031 797.425781 2523.113281 797.425781 Z M 2442.925781 789 L 2466.964844 764.816406 L 2499.378906 797.425781 L 2474.902344 797.425781 C 2463.292969 797.425781 2452.390625 794.351562 2442.925781 789 Z M 2409.972656 739.679688 L 2425.976562 723.582031 L 2458.917969 756.734375 L 2433.367188 782.417969 C 2420.734375 771.957031 2412.074219 756.832031 2409.972656 739.679688 Z M 2427.648438 560.351562 L 2458.917969 591.800781 L 2425.976562 624.9375 L 2409.460938 608.328125 L 2409.460938 605.808594 C 2409.460938 588.179688 2416.394531 572.171875 2427.648438 560.351562 Z M 2507.945312 624.9375 L 2475.007812 591.800781 L 2507.945312 558.664062 L 2540.894531 591.800781 Z M 2548.929688 666.160156 L 2515.996094 633.039062 L 2548.929688 599.898438 L 2581.875 633.039062 Z M 2556.980469 674.261719 L 2588.558594 642.496094 L 2588.558594 706.023438 Z M 2515.996094 715.496094 L 2548.929688 682.359375 L 2581.875 715.496094 L 2548.929688 748.636719 Z M 2507.945312 723.582031 L 2540.894531 756.734375 L 2507.945312 789.855469 L 2475.007812 756.734375 Z M 2466.964844 682.359375 L 2499.902344 715.496094 L 2466.964844 748.636719 L 2434.019531 715.496094 Z M 2507.945312 641.121094 L 2540.894531 674.261719 L 2507.945312 707.398438 L 2475.007812 674.261719 Z M 2466.964844 666.160156 L 2434.019531 633.039062 L 2466.964844 599.898438 L 2499.902344 633.039062 Z M 2409.460938 641.550781 L 2409.460938 624.511719 L 2417.929688 633.039062 Z M 2417.929688 715.496094 L 2409.460938 724.011719 L 2409.460938 706.984375 Z M 2409.460938 690.800781 L 2409.460938 657.734375 L 2425.976562 641.121094 L 2458.917969 674.261719 L 2425.976562 707.398438 Z M 2505.46875 539.976562 L 2510.429688 539.976562 L 2507.945312 542.476562 Z M 2489.371094 539.976562 L 2499.902344 550.574219 L 2466.964844 583.710938 L 2436.203125 552.765625 C 2447.050781 544.734375 2460.433594 539.976562 2474.902344 539.976562 Z M 2601.644531 481.441406 C 2585.230469 475.414062 2566.398438 475.050781 2549.542969 480.03125 C 2554.394531 466.785156 2562.699219 454.5625 2573.167969 445.523438 C 2576.453125 442.691406 2574.605469 436.957031 2570.664062 435.945312 C 2553.199219 431.460938 2535.503906 440.511719 2523.070312 452.761719 C 2516.878906 437.882812 2510.691406 423.015625 2504.5 408.144531 C 2502.257812 402.746094 2495.765625 402.734375 2493.515625 408.144531 C 2487.328125 423.015625 2481.136719 437.882812 2474.949219 452.761719 C 2462.511719 440.511719 2444.820312 431.46875 2427.359375 435.945312 C 2423.414062 436.957031 2421.5625 442.691406 2424.839844 445.523438 C 2435.316406 454.5625 2443.621094 466.785156 2448.472656 480.03125 C 2431.613281 475.050781 2412.796875 475.414062 2396.371094 481.441406 C 2390.941406 483.429688 2391.015625 490.464844 2396.371094 492.488281 C 2417.261719 500.359375 2437.976562 513.21875 2449.539062 532.878906 C 2419.609375 543.441406 2398.082031 572.136719 2398.082031 605.804688 L 2398.082031 731.589844 C 2398.082031 774.199219 2432.546875 808.867188 2474.902344 808.867188 L 2523.113281 808.867188 C 2565.472656 808.867188 2599.9375 774.199219 2599.9375 731.589844 L 2599.9375 605.804688 C 2599.9375 572.136719 2578.402344 543.441406 2548.476562 532.878906 C 2559.996094 513.226562 2580.792969 500.347656 2601.644531 492.488281 C 2606.992188 490.472656 2607.078125 483.429688 2601.644531 481.441406 "/>
</g>
<path style=" stroke:none;fill-rule:nonzero;fill:rgb(100%,100%,100%);fill-opacity:1;" d="M 3357.871094 1886.902344 L 3075.429688 2169.132812 L 3089.214844 2193.992188 L 3100.195312 2193.992188 L 3357.871094 1936.507812 L 3357.871094 1886.902344 "/>
<path style=" stroke:none;fill-rule:nonzero;fill:rgb(100%,100%,100%);fill-opacity:1;" d="M 3357.871094 2068.808594 L 3232.59375 2193.992188 L 3282.25 2193.992188 L 3357.871094 2118.429688 L 3357.871094 2068.808594 "/>
<path style=" stroke:none;fill-rule:nonzero;fill:rgb(100%,100%,100%);fill-opacity:1;" d="M 3313.984375 1839.792969 L 2999.101562 2154.445312 L 3016.792969 2186.375 L 3313.984375 1889.402344 L 3313.984375 1839.792969 "/>
<path style=" stroke:none;fill-rule:nonzero;fill:rgb(100%,100%,100%);fill-opacity:1;" d="M 3357.871094 1704.984375 L 3010.542969 2052.066406 L 3028.234375 2083.984375 L 3357.871094 1754.589844 L 3357.871094 1704.984375 "/>
<g clip-path="url(#clip4)" clip-rule="nonzero">
<path style=" stroke:none;fill-rule:nonzero;fill:rgb(100%,100%,100%);fill-opacity:1;" d="M 3313.984375 2021.703125 L 3097.695312 2237.847656 L 3147.339844 2237.847656 L 3313.984375 2071.320312 L 3313.984375 2021.703125 "/>
</g>
<g clip-path="url(#clip5)" clip-rule="nonzero">
<path style=" stroke:none;fill-rule:nonzero;fill:rgb(100%,100%,100%);fill-opacity:1;" d="M 2628.207031 2210.847656 L 2628.207031 1881.15625 C 2628.207031 1696.589844 2624.847656 1537.191406 2618.128906 1387.863281 L 2623.167969 1386.1875 C 2678.574219 1518.734375 2752.46875 1664.714844 2819.621094 1785.527344 L 2903.117188 1936.15625 L 3062.835938 1776.550781 C 3021.457031 1683.511719 2974.289062 1589.027344 2927.09375 1505.316406 L 2692.011719 1090.867188 L 2393.128906 1090.867188 L 2393.128906 2221.765625 L 2617.28125 2221.765625 L 2628.207031 2210.847656 "/>
</g>
<g clip-path="url(#clip6)" clip-rule="nonzero">
<g clip-path="url(#clip7)" clip-rule="nonzero">
<path style=" stroke:none;fill-rule:nonzero;fill:rgb(100%,100%,100%);fill-opacity:1;" d="M 3103.363281 1736.046875 L 3023.832031 1046.535156 L 3474.382812 1046.535156 L 3474.382812 1473.363281 L 3103.363281 1736.046875 "/>
</g>
</g>
<g clip-path="url(#clip8)" clip-rule="nonzero">
<path style=" stroke:none;fill-rule:nonzero;fill:rgb(100%,100%,100%);fill-opacity:1;" d="M 3279.734375 2237.847656 L 3313.984375 2237.847656 L 3313.984375 2203.621094 Z M 3279.734375 2237.847656 "/>
</g>
<path style=" stroke:none;fill-rule:nonzero;fill:rgb(100%,100%,100%);fill-opacity:1;" d="M 3313.984375 1657.875 L 3097.109375 1874.601562 C 3098.265625 1886.078125 3099.453125 1897.542969 3100.746094 1908.988281 L 3095.703125 1908.988281 C 3092.621094 1901.1875 3089.464844 1893.332031 3086.265625 1885.429688 L 2934.210938 2037.371094 L 2951.914062 2069.300781 L 3313.984375 1707.496094 L 3313.984375 1657.875 "/>
<path style=" stroke:none;fill-rule:nonzero;fill:rgb(100%,100%,100%);fill-opacity:1;" d="M 3137.453125 1792.9375 L 3357.871094 1572.683594 L 3357.871094 1523.0625 L 3133.761719 1747.019531 C 3134.882812 1762.390625 3136.117188 1777.691406 3137.453125 1792.9375 "/>
<path style=" stroke:none;fill-rule:nonzero;fill:rgb(100%,100%,100%);fill-opacity:1;" d="M 3103.234375 1777.523438 L 2945.652344 1934.992188 L 2963.34375 1966.921875 L 3118.070312 1812.308594 C 3113.234375 1800.773438 3108.277344 1789.171875 3103.234375 1777.523438 "/>
<g clip-path="url(#clip9)" clip-rule="nonzero">
<path style=" stroke:none;fill-rule:nonzero;fill:rgb(100%,100%,100%);fill-opacity:1;" d="M 2617.28125 2221.765625 L 2628.207031 2210.847656 L 2628.207031 1881.15625 C 2628.207031 1696.589844 2624.847656 1537.191406 2618.128906 1387.863281 L 2393.128906 1090.867188 L 2393.128906 2221.765625 L 2617.28125 2221.765625 "/>
</g>
<g clip-path="url(#clip10)" clip-rule="nonzero">
<path style=" stroke:none;fill-rule:nonzero;fill:rgb(100%,100%,100%);fill-opacity:1;" d="M 2280.851562 355.296875 L 2280.851562 603.6875 L 2322.054688 603.6875 L 2322.054688 396.695312 L 2651.707031 396.695312 L 2651.707031 831.375 L 2363.261719 831.375 L 2363.261719 872.773438 L 2692.914062 872.773438 L 2692.914062 355.296875 Z M 1909.992188 645.085938 L 1909.992188 748.578125 L 1827.582031 748.578125 L 1827.582031 1266.058594 L 2219.039062 1266.058594 L 2219.039062 1183.261719 L 2322.054688 1183.261719 L 2322.054688 645.085938 Z M 1951.199219 686.480469 L 2280.851562 686.480469 L 2280.851562 1141.863281 L 2219.039062 1141.863281 L 2219.039062 748.578125 L 1951.199219 748.578125 Z M 1868.789062 789.976562 L 2177.835938 789.976562 L 2177.835938 1224.660156 L 1868.789062 1224.660156 Z M 1868.789062 789.976562 "/>
</g>
</g>
</svg>
